<?xml version="1.0" encoding="utf-8"?>
<!-- Generator: Adobe Illustrator 16.0.0, SVG Export Plug-In . SVG Version: 6.00 Build 0)  -->
<!DOCTYPE svg PUBLIC "-//W3C//DTD SVG 1.0//EN" "http://www.w3.org/TR/2001/REC-SVG-20010904/DTD/svg10.dtd">

<svg version="1.0" id="Capa_1" xmlns="http://www.w3.org/2000/svg" xmlns:xlink="http://www.w3.org/1999/xlink" x="0px" y="0px"
   width="595.28px" height="841.89px" viewBox="0 0 595.28 841.89" enable-background="new 0 0 595.28 841.89" xml:space="preserve">
<g>
  <defs>
    <rect id="SVGID_1_" x="56.972" y="16.853" width="182.892" height="79.166"/>
  </defs>
  <clipPath id="SVGID_2_">
    <use xlink:href="#SVGID_1_"  overflow="visible"/>
  </clipPath>
  <g clip-path="url(#SVGID_2_)">
    <text transform="matrix(1 0 0 1 56.9761 28.2183)" fill="#030104" font-family="'Calibri'" font-size="12.0187"> </text>
  </g>
</g>
<path class="letra-s" fill-rule="evenodd" clip-rule="evenodd" fill="#475375" d="M227.967,89.041h3.434c0,0.453,0,1.361,0.43,1.816
  c0.429,0.453,0.859,0.906,1.718,0.906c0.428,0,0.858-0.453,0.858-0.453c0.43-0.453,0.859-0.908,0.859-1.361
  c0-0.455-0.43-0.908-0.43-0.908c-0.43-0.455-1.288-0.908-2.146-1.363c-1.289-0.453-2.576-0.908-3.435-1.816
  c-0.43-0.908-0.859-1.816-0.859-3.177c0-0.908,0-1.363,0.429-2.271c0.43-0.908,0.859-1.361,1.718-1.816
  c0.43-0.453,1.717-0.453,2.576-0.453c1.717,0,3.006,0,3.863,0.907c0.43,0.908,1.289,2.269,1.289,3.632l-3.435,0.453
  c0-0.908-0.43-1.361-0.43-1.816c-0.43,0-0.858-0.453-1.288-0.453c-0.429,0-0.859,0.453-1.288,0.453c0,0.455,0,0.455,0,0.908
  c0,0.455,0,0.455,0,0.908c0.429,0,0.859,0.455,1.288,0.455c1.717,0.453,3.006,0.908,3.434,1.361
  c0.859,0.455,1.289,1.363,1.719,1.815c0,0.908,0.429,1.816,0.429,2.271c0,1.361-0.429,2.269-0.859,3.177
  c-0.43,0.908-0.859,1.361-1.717,1.816c-0.43,0.453-1.718,0.908-2.576,0.908c-2.147,0-3.435-0.908-4.294-1.816
  C228.396,92.217,227.967,90.856,227.967,89.041L227.967,89.041z"/>
<path class="letra-u" fill-rule="evenodd" clip-rule="evenodd" fill="#475375" d="M183.315,78.146h3.865v9.987c0,0.908-0.43,1.815-0.43,2.724
  c-0.43,0.906-0.43,1.361-1.288,2.269c-0.429,0.453-0.859,0.908-1.288,1.361c-0.859,0-1.718,0.455-2.576,0.455
  c-0.43,0-1.288,0-1.717-0.455c-0.858,0-1.288,0-1.718-0.453c-0.429-0.455-0.858-0.908-1.288-1.363
  c-0.429-0.453-0.859-1.361-0.859-1.813c0-0.908-0.429-2.271-0.429-2.724v-9.987h3.864v9.987c0,0.908,0,1.815,0.429,2.269
  c0.43,0.455,0.858,0.455,1.717,0.455c0.43,0,0.858,0,1.288-0.455c0.429-0.453,0.429-1.361,0.429-2.269V78.146z"/>
<polygon class="letra-t" fill-rule="evenodd" clip-rule="evenodd" fill="#475375" points="158.415,78.146 169.578,78.146 169.578,82.23 
  165.713,82.23 165.713,94.486 162.278,94.486 162.278,82.23 158.415,82.23 "/>
<path class="letra-c" fill-rule="evenodd" clip-rule="evenodd" fill="#475375" d="M149.828,87.678l3.436,1.363c-0.43,1.361-0.859,2.722-1.289,3.177
  c-0.43,0.908-0.858,1.816-1.717,1.816c-0.43,0.453-1.289,0.908-2.576,0.908s-2.146-0.455-3.005-0.908
  c-0.858-0.455-1.717-1.363-2.146-2.724c-0.859-1.361-0.859-2.724-0.859-4.992c0-2.724,0.429-4.54,1.288-6.355
  c1.288-1.363,2.576-1.815,4.723-1.815c1.288,0,2.576,0,3.435,0.907c0.858,0.908,1.288,2.269,1.717,4.085l-3.006,0.908
  c0-0.453-0.429-0.908-0.429-0.908c-0.43-0.453-0.43-0.908-0.859-0.908c-0.429-0.453-0.429-0.453-0.858-0.453
  c-0.858,0-1.717,0.453-2.146,1.361c0,0.908-0.429,1.816-0.429,3.179c0,1.816,0.429,3.177,0.858,3.631
  c0.43,0.908,0.859,0.908,1.717,0.908c0.429,0,1.288,0,1.288-0.455C149.398,89.948,149.828,89.041,149.828,87.678L149.828,87.678z"/>
<path class="letra-u" fill-rule="evenodd" clip-rule="evenodd" fill="#475375" d="M131.367,78.146h3.864v9.987c0,0.908,0,1.815-0.429,2.724
  c0,0.906-0.429,1.361-0.859,2.269c-0.43,0.453-1.288,0.908-1.718,1.361c-0.428,0-1.288,0.455-2.576,0.455
  c-0.429,0-1.288,0-1.717-0.455c-0.858,0-1.288,0-1.717-0.453c-0.429-0.455-0.859-0.908-1.288-1.363
  c-0.43-0.453-0.859-1.361-0.859-1.813c0-0.908-0.429-2.271-0.429-2.724v-9.987h3.864v9.987c0,0.908,0,1.815,0.429,2.269
  c0.43,0.455,0.859,0.455,1.717,0.455c0.43,0,0.859,0,1.288-0.455c0.43-0.453,0.43-1.361,0.43-2.269V78.146z"/>
<polygon class="letra-t" fill-rule="evenodd" clip-rule="evenodd" fill="#475375" points="89.721,78.146 100.884,78.146 100.884,82.23 97.021,82.23 
  97.021,94.486 93.156,94.486 93.156,82.23 89.721,82.23 "/>
<path class="letra-s" fill-rule="evenodd" clip-rule="evenodd" fill="#475375" d="M73.407,89.041h3.434c0,0.453,0.429,1.361,0.429,1.816
  c0.429,0.453,0.859,0.906,1.717,0.906c0.43,0,0.859-0.453,0.859-0.453c0.429-0.453,0.859-0.908,0.859-1.361
  c0-0.455-0.43-0.908-0.43-0.908c-0.429-0.455-0.858-0.908-2.146-1.363c-1.288-0.453-2.576-0.908-3.435-1.816
  c-0.429-0.908-0.859-1.816-0.859-3.177c0-0.908,0-1.363,0.43-2.271c0.429-0.908,0.858-1.361,1.717-1.816
  c0.429-0.453,1.717-0.453,3.005-0.453s2.576,0,3.435,0.907c0.429,0.908,1.288,2.269,1.288,3.632l-3.435,0.453
  c0-0.908-0.429-1.361-0.429-1.816c-0.429,0-0.859-0.453-1.288-0.453s-0.859,0.453-1.288,0.453c0,0.455,0,0.455,0,0.908
  c0,0.455,0,0.455,0,0.908c0.429,0,0.859,0.455,1.288,0.455c1.717,0.453,3.005,0.908,3.435,1.361
  c0.858,0.455,1.288,1.363,1.718,1.815c0.429,0.908,0.429,1.816,0.429,2.271c0,1.361-0.429,2.269-0.858,3.177
  c-0.43,0.908-0.858,1.361-1.717,1.816c-0.429,0.453-1.717,0.908-2.576,0.908c-2.146,0-3.435-0.908-4.293-1.816
  C73.836,92.217,73.407,90.856,73.407,89.041L73.407,89.041z"/>
<polygon class="letra-e" fill-rule="evenodd" clip-rule="evenodd" fill="#475375" points="57.521,78.146 67.396,78.146 67.396,81.777 61.385,81.777 
  61.385,84.501 66.966,84.501 66.966,87.678 61.385,87.678 61.385,90.856 67.396,90.856 67.396,94.486 57.521,94.486 "/>
<path class="letra-r" fill-rule="evenodd" clip-rule="evenodd" fill="#475375" d="M116.769,89.948c-0.429-0.455-0.429-0.908-0.858-0.908
  c0-0.455-0.43-0.908-0.43-0.908c0-0.455-0.43-0.455-0.859-0.908c0.43,0,0.859,0,1.289-0.455c0.429-0.453,0.858-0.908,1.288-1.815
  c0-0.453,0.429-1.361,0.429-2.269s-0.429-1.815-0.858-2.724c0-0.455-0.858-0.908-1.288-1.363c-0.43-0.453-1.288-0.453-2.576-0.453
  h-6.011v16.34h3.435v-6.353h0.429c0.43,0,0.43,0,0.859,0.453c0.429,0,0.429,0.455,0.859,0.908l1.717,4.992h4.293L116.769,89.948z
   M113.335,84.046c0,0.455,0,0.455-0.429,0.455c-0.43,0.453-0.859,0.453-0.859,0.453h-1.717v-3.632h1.717
  c0.43,0,1.289,0.455,1.289,0.455c0.429,0.453,0.429,0.908,0.429,1.361C113.764,83.593,113.764,84.046,113.335,84.046z"/>
<path class="letra-r" fill-rule="evenodd" clip-rule="evenodd" fill="#475375" d="M203.925,89.948c-0.43-0.455-0.43-0.908-0.859-0.908
  c0-0.455-0.43-0.908-0.43-0.908c0-0.455-0.43-0.455-0.859-0.908c0.43,0,0.859,0,1.289-0.455c0.43-0.453,0.859-0.908,1.288-1.815
  c0-0.453,0.428-1.361,0.428-2.269s-0.428-1.815-0.857-2.724c0-0.455-0.859-0.908-1.289-1.363c-0.43-0.453-1.288-0.453-2.576-0.453
  h-6.011v16.34h3.435v-6.353h0.43c0.429,0,0.858,0,0.858,0.453c0.429,0,0.429,0.455,0.858,0.908l1.718,4.992h4.293L203.925,89.948z
   M200.489,84.046c0,0.455,0,0.455-0.429,0.455c-0.43,0.453-0.859,0.453-0.859,0.453h-1.717v-3.632h1.717
  c0.859,0,1.289,0.455,1.289,0.455c0.43,0.453,0.43,0.908,0.43,1.361C200.919,83.593,200.919,84.046,200.489,84.046z"/>
<path class="letra-a" fill-rule="evenodd" clip-rule="evenodd" fill="#475375" d="M218.521,78.146h-4.293l-4.294,16.34h3.864l0.43-2.724h4.293
  l0.43,2.724h3.864L218.521,78.146z M215.087,88.133l1.288-5.448l1.288,5.448H215.087z"/>
<path class="letra-o" fill-rule="evenodd" clip-rule="evenodd" fill="#475375" d="M165.713,40.469c0-0.454,1.288-0.908,2.576-0.908
  s1.717,0.454,1.717,1.362v25.875c0,1.361-1.717,1.361-2.146,1.361s-2.146-0.453-2.146-1.361V40.469z M175.158,39.561v28.598
  c0,2.269-2.146,3.177-4.723,3.177h-4.722c-2.147,0.455-4.723-0.908-4.723-3.177V39.561c0-1.816,2.576-3.178,4.723-3.178h4.293
  C172.154,36.383,175.158,37.745,175.158,39.561L175.158,39.561z"/>
<path class="letra-a" fill-rule="evenodd" clip-rule="evenodd" fill="#475375" d="M115.911,39.561V71.79l-4.723-0.455v-10.44h-4.722V71.79h-5.153
  V39.561c0-1.816,2.147-3.178,5.153-3.178h4.722C113.764,36.383,115.911,37.745,115.911,39.561L115.911,39.561z M108.612,39.561
  c-0.858,0-2.576,0.454-2.576,1.362l0.43,16.341h4.722V40.923C110.758,40.015,109.47,39.561,108.612,39.561L108.612,39.561z"/>
<path class="letra-p" fill-rule="evenodd" clip-rule="evenodd" fill="#475375" d="M145.964,60.895V71.79h-4.723V36.383h9.445
  c2.577,0,4.723,1.362,4.723,3.178v18.158c0,1.816-2.576,3.176-4.723,3.176H145.964z M150.687,40.923
  c0-0.908-0.859-1.362-1.718-1.362h-3.005v17.703h3.005c0.859,0,1.718,0,1.718-0.908V40.923z"/>
<path class="letra-r-grande" fill-rule="evenodd" clip-rule="evenodd" fill="#475375" d="M130.937,56.356V40.923c0-0.908-0.429-1.362-1.288-1.362h-2.576
  l-0.429,17.703h3.005C130.508,57.264,130.937,57.264,130.937,56.356L130.937,56.356z M135.66,39.107v18.157
  c0,1.815-2.147,3.178-4.723,3.631l4.723,10.895h-4.723l-4.293-10.895v10.44l-4.723,0.455V36.383h9.016
  C133.084,36.383,135.66,37.291,135.66,39.107L135.66,39.107z"/>
<polygon class="letra-n" fill-rule="evenodd" clip-rule="evenodd" fill="#475375" points="180.739,36.383 180.739,71.79 185.463,71.79 
  185.463,45.462 190.186,47.278 190.186,71.79 194.479,71.79 194.479,36.383 189.756,36.383 189.756,42.738 185.463,40.923 
  185.463,36.383 "/>
<polygon fill="none" points="57.092,96.063 239.984,96.063 239.984,16.864 57.092,16.864 57.092,96.063 "/>
<path class="arco" fill="#E8BC38" d="M147.527,16.593L147.527,16.593c-0.021-0.001-0.04,0-0.06,0c-0.021,0-0.04,0-0.06,0v0.001
  c-64.901-0.045-90.468,56.74-90.468,56.74s28.096,0,29.195,0c1.098,0,2.576,0.455,2.576,0.455v-5.901l-2.576,0.906H64.667
  c31.658-50.119,80.039-47.41,82.74-47.217v0.009c0,0,0.021-0.001,0.06-0.005c0.038,0.003,0.06,0.005,0.06,0.005v-0.009
  c2.7-0.192,51.082-2.901,82.74,47.217h-21.467l-2.576-0.906v5.901c0,0,1.478-0.455,2.576-0.455c1.099,0,29.194,0,29.194,0
  S212.428,16.547,147.527,16.593z"/>
</svg>